<?xml version="1.0" encoding="utf-8"?>
<!-- Generator: Adobe Illustrator 16.0.0, SVG Export Plug-In . SVG Version: 6.00 Build 0)  -->
<!DOCTYPE svg PUBLIC "-//W3C//DTD SVG 1.1//EN" "http://www.w3.org/Graphics/SVG/1.1/DTD/svg11.dtd">
<svg version="1.1" id="Layer_1" xmlns="http://www.w3.org/2000/svg" xmlns:xlink="http://www.w3.org/1999/xlink" x="0px" y="0px"
	 width="610.101px" height="224.242px" viewBox="0 0 610.101 224.242" enable-background="new 0 0 610.101 224.242"
	 xml:space="preserve">
<g>
	<g>
		<g>
			<path fill="#FFFFFF" d="M232.973,102.441h-12.33V54.2h13.744c5.381,0,9.167,0.259,11.339,0.785
				c2.176,0.531,4.024,1.43,5.537,2.706c1.775,1.471,3.132,3.315,4.067,5.52c0.935,2.21,1.399,4.662,1.399,7.367
				c0,2.876-0.465,5.412-1.374,7.596c-0.928,2.184-2.297,3.986-4.093,5.386c-1.364,1.059-2.966,1.818-4.812,2.286
				c-1.849,0.451-4.803,0.683-8.867,0.683h-2.244h-2.366V102.441z M232.973,75.921h2.5c3.169,0,5.37-0.443,6.625-1.306
				c1.255-0.868,1.879-2.344,1.879-4.431c0-2.023-0.615-3.459-1.843-4.322c-1.229-0.857-3.403-1.286-6.526-1.286h-2.635V75.921z"/>
			<path fill="#FFFFFF" d="M274.806,102.441V54.2h13.746c5.379,0,9.129,0.248,11.244,0.744c2.123,0.496,3.951,1.317,5.489,2.479
				c1.729,1.322,3.072,3.005,4.001,5.049c0.94,2.039,1.395,4.291,1.395,6.759c0,3.733-0.919,6.78-2.736,9.103
				c-1.849,2.344-4.523,3.898-8.034,4.672l13.151,19.436h-14.865l-11.075-18.882v18.882H274.806z M287.121,77.005h2.442
				c2.84,0,4.904-0.479,6.21-1.451c1.308-0.964,1.958-2.482,1.958-4.543c0-2.426-0.604-4.151-1.829-5.163
				c-1.218-1.022-3.267-1.535-6.143-1.535h-2.639V77.005z"/>
			<path fill="#FFFFFF" d="M378.979,78.426c0,3.459-0.639,6.713-1.913,9.744c-1.277,3.045-3.126,5.751-5.568,8.147
				c-2.462,2.365-5.28,4.202-8.441,5.488c-3.16,1.28-6.443,1.927-9.852,1.927c-3.448,0-6.753-0.646-9.902-1.927
				c-3.15-1.286-5.923-3.123-8.323-5.488c-2.482-2.396-4.368-5.123-5.645-8.169c-1.291-3.056-1.936-6.297-1.936-9.722
				c0-3.454,0.645-6.697,1.936-9.743c1.276-3.042,3.162-5.762,5.645-8.153c2.4-2.38,5.173-4.203,8.323-5.489
				c3.149-1.29,6.454-1.926,9.902-1.926c3.429,0,6.728,0.636,9.898,1.926c3.176,1.286,5.975,3.109,8.395,5.489
				c2.417,2.37,4.266,5.081,5.546,8.133C378.341,71.725,378.979,74.972,378.979,78.426z M353.205,92.59
				c3.65,0,6.666-1.344,9.047-4.022c2.381-2.68,3.568-6.062,3.568-10.142c0-4.048-1.198-7.415-3.621-10.12
				c-2.415-2.706-5.409-4.062-8.994-4.062c-3.645,0-6.664,1.353-9.045,4.042c-2.386,2.695-3.579,6.072-3.579,10.14
				c0,4.131,1.173,7.518,3.537,10.184C346.463,91.257,349.488,92.59,353.205,92.59z"/>
			<path fill="#FFFFFF" d="M428.972,102.441V54.2h29.564v10.574h-16.738v8.38h15.783v10.344h-15.783v8.142h16.738v10.801H428.972z"
				/>
			<path fill="#FFFFFF" d="M478.611,102.441V54.2h13.745c5.386,0,9.128,0.248,11.256,0.744c2.118,0.496,3.944,1.317,5.484,2.479
				c1.734,1.322,3.065,3.005,4.012,5.049c0.935,2.039,1.389,4.291,1.389,6.759c0,3.733-0.915,6.78-2.747,9.103
				c-1.838,2.344-4.513,3.898-8.024,4.672l13.146,19.436h-14.855l-11.086-18.882v18.882H478.611z M490.931,77.005h2.447
				c2.83,0,4.901-0.479,6.207-1.451c1.312-0.964,1.967-2.482,1.967-4.543c0-2.426-0.608-4.151-1.838-5.163
				c-1.213-1.022-3.263-1.535-6.14-1.535h-2.644V77.005z"/>
			<path fill="#FFFFFF" d="M527.59,102.441L544.232,54.2h16.476l16.678,48.241h-13.084l-2.442-8.627h-18.675l-2.509,8.627H527.59z
				 M546.015,84.416h13.083l-4.915-15.915c-0.151-0.485-0.356-1.264-0.62-2.339c-0.269-1.079-0.609-2.451-1.027-4.156
				c-0.285,1.184-0.563,2.319-0.837,3.397c-0.272,1.075-0.558,2.106-0.841,3.098L546.015,84.416z"/>
			<path fill="#FFFFFF" d="M220.643,168.171v-48.452h13.808c5.401,0,9.16,0.258,11.292,0.753c2.132,0.496,3.96,1.333,5.509,2.501
				c1.74,1.321,3.082,3.003,4.018,5.048c0.94,2.066,1.409,4.327,1.409,6.795c0,3.75-0.925,6.807-2.768,9.15
				c-1.838,2.345-4.523,3.913-8.05,4.678l13.192,19.526h-14.916l-11.111-18.969v18.969H220.643z M233.025,142.625h2.442
				c2.846,0,4.925-0.476,6.231-1.456c1.322-0.972,1.978-2.49,1.978-4.565c0-2.426-0.604-4.151-1.837-5.174
				c-1.225-1.033-3.285-1.549-6.176-1.549h-2.639V142.625z"/>
			<path fill="#FFFFFF" d="M271.693,168.171v-48.452h29.683v10.626h-16.801v8.406h15.842v10.389h-15.842v8.179h16.801v10.852
				H271.693z"/>
			<path fill="#FFFFFF" d="M352.838,121.621v14.425c-1.812-2.014-3.607-3.479-5.405-4.431c-1.802-0.928-3.729-1.403-5.782-1.403
				c-3.795,0-6.867,1.3-9.206,3.882c-2.359,2.603-3.538,5.979-3.538,10.162c0,3.882,1.204,7.095,3.591,9.655
				c2.4,2.551,5.445,3.831,9.153,3.831c2.054,0,3.98-0.465,5.782-1.403c1.798-0.93,3.594-2.417,5.405-4.441v14.458
				c-2.095,1-4.176,1.775-6.263,2.28c-2.054,0.496-4.16,0.756-6.283,0.756c-2.649,0-5.086-0.311-7.327-0.94
				c-2.235-0.631-4.291-1.58-6.174-2.86c-3.615-2.428-6.366-5.474-8.263-9.159c-1.91-3.688-2.849-7.84-2.849-12.455
				c0-3.696,0.598-7.073,1.802-10.109c1.192-3.025,3.016-5.773,5.437-8.252c2.293-2.364,4.885-4.12,7.761-5.297
				c2.886-1.166,6.087-1.756,9.613-1.756c2.123,0,4.229,0.26,6.283,0.765C348.662,119.843,350.743,120.598,352.838,121.621z"/>
			<path fill="#FFFFFF" d="M417.622,144.049c0,3.49-0.639,6.753-1.921,9.789c-1.28,3.048-3.138,5.773-5.586,8.17
				c-2.479,2.396-5.302,4.233-8.479,5.514c-3.18,1.291-6.474,1.932-9.898,1.932c-3.453,0-6.768-0.641-9.938-1.932
				c-3.165-1.28-5.948-3.118-8.354-5.514c-2.488-2.396-4.39-5.134-5.664-8.2c-1.3-3.067-1.941-6.319-1.941-9.759
				c0-3.469,0.642-6.723,1.941-9.779c1.274-3.056,3.176-5.783,5.664-8.189c2.406-2.384,5.189-4.224,8.354-5.504
				c3.171-1.3,6.485-1.941,9.938-1.941c3.456,0,6.77,0.641,9.946,1.941c3.185,1.28,5.994,3.12,8.431,5.504
				c2.427,2.375,4.286,5.112,5.577,8.17C416.983,137.326,417.622,140.58,417.622,144.049z M391.738,158.28
				c3.672,0,6.697-1.354,9.095-4.039c2.384-2.694,3.594-6.092,3.594-10.192c0-4.059-1.225-7.445-3.646-10.151
				c-2.427-2.726-5.438-4.089-9.042-4.089c-3.649,0-6.686,1.363-9.075,4.059c-2.392,2.705-3.589,6.103-3.589,10.182
				c0,4.151,1.172,7.549,3.541,10.224C384.971,156.937,388.016,158.28,391.738,158.28z"/>
			<path fill="#FFFFFF" d="M433.505,168.171v-48.452h13.802c5.396,0,9.16,0.258,11.292,0.753c2.128,0.496,3.966,1.333,5.525,2.501
				c1.729,1.321,3.067,3.003,4.006,5.048c0.94,2.066,1.405,4.327,1.405,6.795c0,3.75-0.92,6.807-2.767,9.15
				c-1.835,2.345-4.523,3.913-8.045,4.678l13.196,19.526h-14.921l-11.123-18.969v18.969H433.505z M445.876,142.625h2.448
				c2.849,0,4.927-0.476,6.243-1.456c1.311-0.972,1.967-2.49,1.967-4.565c0-2.426-0.61-4.151-1.844-5.174
				c-1.219-1.033-3.274-1.549-6.159-1.549h-2.655V142.625z"/>
			<path fill="#FFFFFF" d="M484.561,168.171v-48.452h10.098c7.513,0,12.843,0.361,15.96,1.064c3.12,0.712,5.865,1.891,8.221,3.543
				c3.067,2.138,5.392,4.883,6.98,8.229c1.586,3.336,2.387,7.146,2.387,11.421c0,4.285-0.801,8.097-2.387,11.433
				c-1.589,3.355-3.913,6.081-6.98,8.229c-2.339,1.631-5.008,2.787-8.008,3.49c-3.006,0.691-7.652,1.042-13.963,1.042h-2.21H484.561
				z M497.633,157.319h2.221c5.174,0,8.958-1.064,11.345-3.201c2.38-2.129,3.568-5.504,3.568-10.142
				c0-4.626-1.188-8.023-3.568-10.183c-2.387-2.168-6.171-3.252-11.345-3.252h-2.221V157.319z"/>
			<path fill="#FFFFFF" d="M546.23,152.517c1.967,2.231,3.904,3.904,5.814,4.999c1.899,1.104,3.804,1.652,5.711,1.652
				c1.76,0,3.21-0.465,4.351-1.426c1.132-0.949,1.7-2.137,1.7-3.604c0-1.61-0.496-2.849-1.472-3.717
				c-0.982-0.877-3.206-1.776-6.671-2.695c-4.745-1.291-8.096-2.943-10.053-4.999c-1.963-2.054-2.953-4.874-2.953-8.437
				c0-4.636,1.547-8.415,4.65-11.339c3.093-2.921,7.12-4.389,12.067-4.389c2.665,0,5.195,0.372,7.596,1.084
				c2.39,0.723,4.652,1.798,6.801,3.254l-4.143,9.501c-1.496-1.282-3.036-2.252-4.616-2.893c-1.585-0.65-3.14-0.98-4.683-0.98
				c-1.586,0-2.886,0.381-3.866,1.146c-0.997,0.754-1.481,1.726-1.481,2.924c0,1.219,0.428,2.188,1.294,2.911
				c0.868,0.733,2.552,1.425,5.039,2.086l0.605,0.165c5.386,1.468,8.917,3.057,10.615,4.793c1.151,1.196,2.02,2.633,2.618,4.285
				c0.594,1.661,0.894,3.521,0.894,5.555c0,5.132-1.688,9.263-5.055,12.383c-3.378,3.118-7.885,4.678-13.507,4.678
				c-3.378,0-6.45-0.568-9.213-1.705c-2.772-1.156-5.431-2.953-7.991-5.4L546.23,152.517z"/>
		</g>
	</g>
	<g>
		<g>
			<path fill="#FFFFFF" d="M91.964,93.033H73.387v12.98h18.38c5.257-0.138,7.979-2.37,8.175-6.748
				C99.745,95.265,97.023,93.209,91.964,93.033z"/>
		</g>
		<g>
			<path fill="#FFFFFF" d="M121.828,111.286c-2.236,0-4.285,0.645-6.129,1.849c-1.75,1.191-2.628,2.88-2.628,5.11h17.617
				c0-2.23-0.883-3.918-2.634-5.11C126.31,111.931,124.271,111.286,121.828,111.286z"/>
		</g>
		<g>
			<path fill="#FFFFFF" d="M32.715,30.687v162.869h162.948V30.687H32.715z M142.937,126.318h-30.253
				c0.289,2.221,1.266,3.904,3.016,5.101c1.844,1.21,3.893,1.849,6.129,1.849c4.188,0,7.781-1.073,10.992-3.263l7.11,6.526
				c-3.319,4.089-9.242,6.103-18.103,6.103c-6.32,0-11.68-1.93-15.759-5.72c-4.089-3.77-6.128-8.675-6.128-14.633
				c0-2.366,0.387-4.645,0.975-6.617c-3.221,1.115-7.301,1.72-11.969,1.72H73.387v25.25H60.24V81.571H88.85
				c15.372,0,23.061,5.829,23.061,17.596c0,1.772-0.207,3.403-0.491,4.859c3.015-1.373,6.619-2.138,10.409-2.138
				c6.521,0,11.576,1.972,15.375,5.746c3.792,3.775,5.733,8.68,5.733,14.647V126.318z M164.435,142.634l-6.232-3.014l-6.024,3.014
				l1.167-6.36l-4.957-4.462l6.806-0.897l3.009-5.762l3.12,5.762l6.815,0.897l-4.956,4.462L164.435,142.634z"/>
		</g>
	</g>
</g>
</svg>
